<svg width="50" height="50" viewBox="0 0 50 50" fill="none" xmlns="http://www.w3.org/2000/svg">
<circle cx="25" cy="25" r="25" fill="white"/>
<path d="M30.2827 18.854C30.4115 18.854 30.5146 18.9055 30.5918 19.0085C30.6949 19.0858 30.7464 19.1888 30.7464 19.3176V22.3699C30.7464 22.4987 30.6949 22.6146 30.5918 22.7176C30.5146 22.7949 30.4115 22.8335 30.2827 22.8335H26.4577C26.329 22.8335 26.2646 22.8979 26.2646 23.0267V38.1722C26.2646 38.301 26.213 38.4169 26.11 38.52C26.0327 38.5972 25.9297 38.6359 25.8009 38.6359H22.2464C22.1176 38.6359 22.0017 38.5972 21.8987 38.52C21.8214 38.4169 21.7827 38.301 21.7827 38.1722V23.0267C21.7827 22.8979 21.7183 22.8335 21.5896 22.8335H19.1941C19.0653 22.8335 18.9494 22.7949 18.8464 22.7176C18.7691 22.6146 18.7305 22.4987 18.7305 22.3699V19.3176C18.7305 19.1888 18.7691 19.0858 18.8464 19.0085C18.9494 18.9055 19.0653 18.854 19.1941 18.854H21.5896C21.7183 18.854 21.7827 18.7896 21.7827 18.6608V17.9653C21.7827 16.2911 22.0017 15.0032 22.4396 14.1017C22.8774 13.1744 23.5987 12.5176 24.6032 12.1312C25.6077 11.7449 27.0244 11.5645 28.8532 11.5903H30.2055C30.3343 11.5903 30.4373 11.6418 30.5146 11.7449C30.6176 11.8221 30.6691 11.9252 30.6691 12.0539V14.7585C30.6691 14.8873 30.6176 15.0032 30.5146 15.1062C30.4373 15.1835 30.3343 15.2221 30.2055 15.2221H29.2009C28.0933 15.2221 27.3206 15.4411 26.8827 15.879C26.4706 16.3168 26.2646 17.1153 26.2646 18.2744V18.6608C26.2646 18.7896 26.329 18.854 26.4577 18.854H30.2827Z" fill="#42454A"/>
</svg>
