<svg width="50" height="50" viewBox="0 0 50 50" fill="none" xmlns="http://www.w3.org/2000/svg">
<circle cx="25" cy="25" r="25" fill="#40B4BB"/>
<path d="M34.0442 12.7263H15.8368C13.7811 12.7263 12.2148 14.2926 12.2148 16.3482V34.5557C12.2148 36.6114 13.7811 38.1776 15.8368 38.1776H34.0442C36.0999 38.1776 37.6662 36.6114 37.6662 34.5557V16.3482C37.6662 14.2926 36.0999 12.7263 34.0442 12.7263ZM24.9405 33.0874C29.1498 33.0874 32.5759 29.7591 32.5759 25.7456C32.5759 25.4776 32.5609 25.1946 32.531 24.9142C32.4656 24.302 32.918 23.69 33.5337 23.69C34.0319 23.69 34.4358 24.0938 34.4358 24.592V34.0663C34.4358 34.5557 34.0442 35.0452 33.4569 35.0452H16.4241C15.9347 35.0452 15.4452 34.6536 15.4452 34.0663V24.5601C15.4452 24.0255 15.8786 23.5921 16.4133 23.5921C17.0564 23.5921 17.5182 24.2102 17.4473 24.8495C17.4178 25.1156 17.403 25.3817 17.403 25.6478C17.3051 29.7591 20.7312 33.0874 24.9405 33.0874ZM24.9405 30.1507C22.1996 30.1507 20.046 27.9971 20.046 25.3541C20.046 22.7111 22.1996 20.5575 24.9405 20.5575C27.6814 20.5575 29.835 22.7111 29.835 25.3541C29.835 28.095 27.6814 30.1507 24.9405 30.1507ZM34.3379 19.6765C34.3379 20.2638 33.8485 20.7533 33.2611 20.7533H30.5202C29.9329 20.7533 29.4434 20.2638 29.4434 19.6765V17.0335C29.4434 16.4461 29.9329 15.9567 30.5202 15.9567H33.2611C33.8485 15.9567 34.3379 16.4461 34.3379 17.0335V19.6765Z" fill="#42454A"/>
</svg>
