<svg width="50" height="50" viewBox="0 0 50 50" fill="none" xmlns="http://www.w3.org/2000/svg">
<circle cx="25" cy="25" r="25" fill="#40B4BB"/>
<path d="M37.921 17.4344C37.0121 17.8126 35.9732 18.0647 34.9344 18.1908C35.9732 17.5605 36.8822 16.5519 37.2718 15.4173C36.2329 16.0476 35.1941 16.4258 33.8956 16.678C32.9866 15.6694 31.5582 15.0391 30.1298 15.0391C27.273 15.0391 24.9357 17.3083 24.9357 20.0819C24.9357 20.4601 24.9357 20.8383 25.0655 21.2165C20.7804 20.9643 16.8847 18.9472 14.2877 15.9215C13.8981 16.678 13.6384 17.5605 13.6384 18.4429C13.6384 20.2079 14.5474 21.7208 15.9758 22.6033C15.0668 22.6033 14.2877 22.3511 13.6384 21.9729C13.6384 24.3682 15.4563 26.5114 17.7937 26.8896C17.4042 27.0157 16.8848 27.0157 16.3653 27.0157C15.9758 27.0157 15.7161 27.0157 15.3265 26.8896C15.9758 28.9067 17.9236 30.4196 20.2609 30.4196C18.443 31.8064 16.2355 32.5628 13.7683 32.5628C13.3787 32.5628 12.9891 32.5628 12.4697 32.4367C14.8071 33.8235 17.534 34.706 20.5207 34.706C30.1298 34.706 35.324 27.0157 35.324 20.334V19.7036C36.3628 19.3254 37.2718 18.4429 37.921 17.4344Z" fill="#42454A"/>
</svg>
